Coordinates
version=1
nRows=49
nColumns=12
inDegrees=yes

Units are S.I. units (second, meters, Newtons, ...)
Angles are in degrees

endheader
time	SC_y	SC_z	SC_x	AC_y	AC_z	AC_x	GH_y	GH_z	GH_yy	EL_x	PS_y
       0.0              -33.07          37.05           79.4           48.8          1.286          11.92         -143.3          17.82          116.4          139.3          124.3
   0.03371              -33.07          37.04          79.39           48.8          1.285          11.92         -143.3          17.83          116.4          139.3          124.3
   0.06743              -33.07          37.04          79.39           48.8          1.284          11.91         -143.3          17.84          116.3          139.3          124.3
    0.1011              -33.07          37.04          79.38           48.8          1.282          11.91         -143.3          17.85          116.3          139.3          124.3
    0.1349              -33.08          37.03          79.38           48.8          1.281          11.91         -143.2          17.86          116.3          139.3          124.3
    0.1686              -33.08          37.03          79.37           48.8          1.279           11.9         -143.2          17.87          116.3          139.3          124.3
    0.2023              -33.08          37.02          79.37          48.81          1.278           11.9         -143.2          17.89          116.2          139.3          124.2
     0.236              -33.08          37.01          79.36          48.81          1.276          11.89         -143.2           17.9          116.2          139.3          124.2
    0.2697              -33.08          37.01          79.35          48.81          1.274          11.89         -143.2          17.91          116.2          139.3          124.2
    0.3034              -33.09           37.0          79.35          48.81          1.272          11.88         -143.2          17.93          116.1          139.3          124.2
    0.3371              -33.09          36.99          79.34          48.82           1.27          11.88         -143.2          17.94          116.1          139.3          124.2
    0.3709              -33.09          36.99          79.33          48.82          1.268          11.87         -143.2          17.96          116.1          139.2          124.2
    0.4046               -33.1          36.98          79.32          48.82          1.265          11.87         -143.2          17.98          116.0          139.2          124.2
    0.4383               -33.1          36.97          79.31          48.82          1.263          11.86         -143.2           18.0          116.0          139.2          124.2
     0.472               -33.1          36.96           79.3          48.83           1.26          11.85         -143.1          18.02          115.9          139.2          124.2
    0.5057              -33.11          36.95          79.29          48.83          1.257          11.84         -143.1          18.04          115.9          139.2          124.2
    0.5394              -33.11          36.94          79.28          48.84          1.253          11.83         -143.1          18.07          115.8          139.2          124.2
    0.5731              -33.12          36.92          79.26          48.84           1.25          11.82         -143.1           18.1          115.8          139.2          124.2
    0.6069              -33.12          36.91          79.25          48.84          1.246          11.81         -143.1          18.13          115.7          139.2          124.1
    0.6406              -33.13           36.9          79.23          48.85          1.241           11.8         -143.0          18.16          115.6          139.1          124.1
    0.6743              -33.14          36.88          79.22          48.86          1.236          11.79         -143.0          18.19          115.6          139.1          124.1
     0.708              -33.14          36.86           79.2          48.86          1.231          11.77         -143.0          18.23          115.5          139.1          124.1
    0.7417              -33.15          36.84          79.17          48.87          1.225          11.76         -143.0          18.28          115.4          139.1          124.1
    0.7754              -33.16          36.82          79.15          48.88          1.219          11.74         -142.9          18.33          115.3          139.0          124.1
    0.8092              -33.17          36.79          79.12          48.88          1.211          11.72         -142.9          18.38          115.1          139.0          124.0
    0.8429              -33.18          36.76          79.09          48.89          1.203           11.7         -142.8          18.44          115.0          139.0          124.0
    0.8766              -33.19          36.73          79.06           48.9          1.194          11.67         -142.8          18.51          114.9          138.9          124.0
    0.9103              -33.21           36.7          79.02          48.92          1.184          11.65         -142.7          18.59          114.7          138.9          123.9
     0.944              -33.22          36.66          78.98          48.93          1.172          11.62         -142.7          18.67          114.5          138.8          123.9
    0.9777              -33.24          36.61          78.93          48.95          1.159          11.58         -142.6          18.77          114.3          138.8          123.9
     1.011              -33.26          36.56          78.88          48.96          1.144          11.54         -142.5          18.88          114.0          138.7          123.8
     1.045              -33.29           36.5          78.82          48.98          1.127          11.49         -142.4          19.01          113.7          138.6          123.8
     1.079              -33.31          36.44          78.75          49.01          1.107          11.44         -142.3          19.16          113.4          138.6          123.7
     1.113              -33.34          36.36          78.66          49.03          1.084          11.38         -142.2          19.33          113.0          138.5          123.6
     1.146              -33.38          36.27          78.56          49.07          1.057          11.31         -142.1          19.53          112.6          138.4          123.5
      1.18              -33.42          36.16          78.45           49.1          1.025          11.22         -141.9          19.77          112.1          138.2          123.4
     1.214              -33.48          36.03          78.31          49.15         0.9875          11.12         -141.7          20.05          111.4          138.1          123.3
     1.247              -33.54          35.87          78.14           49.2         0.9423           11.0         -141.5          20.38          110.7          137.9          123.2
     1.281              -33.61          35.69          77.95          49.27         0.8875          10.85         -141.2          20.79          109.8          137.6          123.0
     1.315               -33.7          35.46           77.7          49.35         0.8205          10.67         -140.8          21.29          108.7          137.3          122.8
     1.349              -33.82          35.17           77.4          49.44         0.7379          10.45         -140.4          21.91          107.3          137.0          122.5
     1.382              -33.96          34.82          77.03          49.56         0.6349          10.17         -139.9          22.67          105.6          136.6          122.2
     1.416              -34.14          34.38          76.55          49.72         0.5051          9.822         -139.2          23.64          103.5          136.0          121.8
      1.45              -34.36          33.81          75.95          49.91         0.3402          9.379         -138.3          24.87          100.8          135.3          121.3
     1.483              -34.65          33.09          75.19          50.16          0.129          8.811         -137.2          26.44          97.29          134.4          120.6
     1.517              -35.02          32.16           74.2          50.48        -0.1419          8.083         -135.8          28.46          92.83          133.2          119.7
     1.551              -35.49          30.98          72.94          50.89        -0.4881          7.153         -134.0          31.03          87.12          131.8          118.6
     1.585              -36.09          29.49          71.36           51.4        -0.9233          5.983         -131.8          34.27          79.94          129.9          117.2
     1.618              -36.81          27.68          69.43          52.03         -1.454          4.558         -129.0          38.22           71.2          127.7          115.6
